<svg width="15" height="15" viewBox="0 0 15 15" fill="none" xmlns="http://www.w3.org/2000/svg">
<path fill-rule="evenodd" clip-rule="evenodd" d="M7.5 14.0625C9.24048 14.0625 10.9097 13.3711 12.1404 12.1404C13.3711 10.9097 14.0625 9.24048 14.0625 7.5C14.0625 5.75952 13.3711 4.09032 12.1404 2.85961C10.9097 1.6289 9.24048 0.9375 7.5 0.9375C5.75952 0.9375 4.09032 1.6289 2.85961 2.85961C1.6289 4.09032 0.9375 5.75952 0.9375 7.5C0.9375 9.24048 1.6289 10.9097 2.85961 12.1404C4.09032 13.3711 5.75952 14.0625 7.5 14.0625ZM7.5 15C9.48912 15 11.3968 14.2098 12.8033 12.8033C14.2098 11.3968 15 9.48912 15 7.5C15 5.51088 14.2098 3.60322 12.8033 2.1967C11.3968 0.790176 9.48912 0 7.5 0C5.51088 0 3.60322 0.790176 2.1967 2.1967C0.790176 3.60322 0 5.51088 0 7.5C0 9.48912 0.790176 11.3968 2.1967 12.8033C3.60322 14.2098 5.51088 15 7.5 15Z" fill="#393B55"/>
<path fill-rule="evenodd" clip-rule="evenodd" d="M10.2844 4.65933C10.4156 4.52927 10.5927 4.45608 10.7774 4.45557C10.9622 4.45506 11.1397 4.52728 11.2716 4.65661C11.4035 4.78594 11.4792 4.962 11.4824 5.14671C11.4855 5.33142 11.4159 5.50996 11.2884 5.64371L7.54593 10.3218C7.48161 10.3911 7.40398 10.4467 7.31768 10.4853C7.23138 10.5239 7.13819 10.5447 7.04367 10.5464C6.94915 10.5482 6.85525 10.5309 6.76758 10.4955C6.67991 10.4601 6.60027 10.4074 6.53343 10.3406L4.05375 7.85996C3.98466 7.79559 3.92926 7.71796 3.89083 7.63171C3.8524 7.54546 3.83173 7.45236 3.83007 7.35795C3.8284 7.26354 3.84577 7.16976 3.88113 7.08221C3.91649 6.99466 3.96913 6.91513 4.0359 6.84836C4.10266 6.78159 4.1822 6.72896 4.26975 6.69359C4.3573 6.65823 4.45108 6.64086 4.54549 6.64253C4.63989 6.64419 4.733 6.66486 4.81925 6.70329C4.9055 6.74172 4.98312 6.79713 5.0475 6.86621L7.01062 8.82839L10.2666 4.67996C10.2724 4.6727 10.2786 4.66581 10.2853 4.65933H10.2844Z" fill="#393B55"/>
</svg>
