<svg width="37" height="35" viewBox="0 0 37 35" fill="none" xmlns="http://www.w3.org/2000/svg">
<path d="M31.2 30.625H28.6V31.2744C28.6 32.4821 28.2005 33.4448 27.4016 34.1626C26.6026 34.8804 25.6344 35.1367 24.4969 34.9316L4.10313 31.5478C2.96563 31.3656 1.9974 30.7845 1.19844 29.8047C0.399479 28.8249 0 27.7311 0 26.5234V4.375C0 3.16732 0.507812 2.13623 1.52344 1.28174C2.53906 0.427246 3.76458 0 5.2 0H31.2C32.6354 0 33.8609 0.427246 34.8766 1.28174C35.8922 2.13623 36.4 3.16732 36.4 4.375V26.25C36.4 27.4577 35.8922 28.4888 34.8766 29.3433C33.8609 30.1978 32.6354 30.625 31.2 30.625ZM5.2 14.2529C5.2 15.3011 5.60625 16.2581 6.41875 17.124C6.52708 17.2607 6.81823 17.4772 7.29219 17.7734C7.76615 18.0697 8.18594 18.383 8.55156 18.7134C8.91719 19.0438 9.1 19.3685 9.1 19.6875V24.0625C9.1 24.4043 9.52656 24.7176 10.3797 25.0024C11.2328 25.2873 12.5396 25.612 14.3 25.9766C15.3563 26.2044 16.2703 26.2899 17.0422 26.2329C17.8141 26.1759 18.4167 26.0449 18.85 25.8398C19.2833 25.6348 19.5 25.4069 19.5 25.1562V20.7812C19.5 20.4622 19.6828 20.1603 20.0484 19.8755C20.4141 19.5907 20.8474 19.3343 21.3484 19.1064C21.8495 18.8786 22.1406 18.7305 22.2219 18.6621C22.3573 18.571 22.5536 18.4684 22.8109 18.3545C23.0682 18.2406 23.2307 18.1209 23.2984 17.9956C23.3661 17.8703 23.4 17.6481 23.4 17.3291C23.4 16.3037 23.0073 15.3581 22.2219 14.4922C21.4365 13.6263 20.5021 13.1022 19.4188 12.9199C18.7417 12.806 18.1052 12.863 17.5094 13.0908C16.6969 11.9287 15.6203 11.2337 14.2797 11.0059C12.9391 10.778 11.876 11.1084 11.0906 11.9971C10.4677 11.5869 9.83125 11.3249 9.18125 11.2109C8.07083 11.0286 7.12969 11.2337 6.35781 11.8262C5.58594 12.4186 5.2 13.2275 5.2 14.2529ZM33.8 5.94727C33.8 4.89909 33.3599 4.01042 32.4797 3.28125C31.5995 2.55208 30.55 2.1875 29.3313 2.1875H10.4406L24.4969 4.51172C25.6344 4.7168 26.6026 5.30924 27.4016 6.28906C28.2005 7.26888 28.6 8.35124 28.6 9.53613V28.4375H29.3313C30.55 28.4375 31.5995 28.0672 32.4797 27.3267C33.3599 26.5861 33.8 25.7031 33.8 24.6777V5.94727Z" fill="#A8E6CF"/>
</svg>
