<svg width="30" height="30" viewBox="0 0 30 30" fill="none" xmlns="http://www.w3.org/2000/svg">
<path d="M14.9999 2.39999C11.6582 2.39999 8.45332 3.72749 6.09036 6.09045C3.7274 8.45341 2.3999 11.6583 2.3999 15C2.3999 18.3417 3.7274 21.5466 6.09036 23.9095C8.45332 26.2725 11.6582 27.6 14.9999 27.6C18.3416 27.6 21.5465 26.2725 23.9094 23.9095C26.2724 21.5466 27.5999 18.3417 27.5999 15C27.5999 11.6583 26.2724 8.45341 23.9094 6.09045C21.5465 3.72749 18.3416 2.39999 14.9999 2.39999V2.39999ZM22.1834 19.5915L19.5899 22.185L14.9999 17.5935L10.4084 22.1835L7.8149 19.59L12.4079 15L7.8164 10.4085L10.4099 7.81649L14.9999 12.4065L19.5914 7.81499L22.1849 10.4085L17.5919 15L22.1834 19.5915Z" fill="#36827F"/>
</svg>
