<svg width="15" height="16" viewBox="0 0 15 16" fill="none" xmlns="http://www.w3.org/2000/svg">
<path d="M13.5831 15.0831C13.2456 15.4207 12.7877 15.6103 12.3104 15.6103C11.833 15.6103 11.3752 15.4207 11.0376 15.0831L7.06112 10.5381L3.08462 15.0816C2.91797 15.251 2.71944 15.3857 2.50047 15.478C2.28151 15.5702 2.04644 15.6182 1.80883 15.6192C1.57122 15.6202 1.33577 15.5741 1.11606 15.4836C0.896347 15.3931 0.696725 15.26 0.528708 15.092C0.36069 14.924 0.227601 14.7244 0.137118 14.5047C0.0466346 14.285 0.000547286 14.0495 0.00151481 13.8119C0.00248234 13.5743 0.0504853 13.3392 0.142755 13.1203C0.235025 12.9013 0.369735 12.7028 0.539115 12.5361L4.67612 7.81112L0.537615 3.08312C0.368235 2.91647 0.233525 2.71794 0.141255 2.49897C0.0489854 2.28001 0.000982452 2.04494 1.49234e-05 1.80733C-0.000952606 1.56972 0.0451347 1.33427 0.135618 1.11456C0.226101 0.894847 0.35919 0.695225 0.527208 0.527208C0.695225 0.35919 0.894847 0.226101 1.11456 0.135618C1.33427 0.0451347 1.56972 -0.000952606 1.80733 1.49234e-05C2.04494 0.000982452 2.28001 0.0489854 2.49897 0.141255C2.71794 0.233525 2.91647 0.368235 3.08312 0.537615L7.06112 5.08412L11.0376 0.537615C11.2043 0.368235 11.4028 0.233525 11.6218 0.141255C11.8407 0.0489854 12.0758 0.000982452 12.3134 1.49234e-05C12.551 -0.000952606 12.7865 0.0451347 13.0062 0.135618C13.2259 0.226101 13.4255 0.35919 13.5935 0.527208C13.7615 0.695225 13.8946 0.894847 13.9851 1.11456C14.0756 1.33427 14.1217 1.56972 14.1207 1.80733C14.1197 2.04494 14.0717 2.28001 13.9795 2.49897C13.8872 2.71794 13.7525 2.91647 13.5831 3.08312L9.44612 7.81112L13.5831 12.5361C13.7505 12.7033 13.8832 12.9018 13.9738 13.1203C14.0644 13.3388 14.111 13.5731 14.111 13.8096C14.111 14.0462 14.0644 14.2804 13.9738 14.4989C13.8832 14.7174 13.7505 14.9159 13.5831 15.0831Z" fill="#36827F"/>
<path d="M13.5831 15.0831C13.2456 15.4207 12.7877 15.6103 12.3104 15.6103C11.833 15.6103 11.3752 15.4207 11.0376 15.0831L7.06112 10.5381L3.08462 15.0816C2.91797 15.251 2.71944 15.3857 2.50047 15.478C2.28151 15.5702 2.04644 15.6182 1.80883 15.6192C1.57122 15.6202 1.33577 15.5741 1.11606 15.4836C0.896347 15.3931 0.696725 15.26 0.528708 15.092C0.36069 14.924 0.227601 14.7244 0.137118 14.5047C0.0466346 14.285 0.000547286 14.0495 0.00151481 13.8119C0.00248234 13.5743 0.0504853 13.3392 0.142755 13.1203C0.235025 12.9013 0.369735 12.7028 0.539115 12.5361L4.67612 7.81112L0.537615 3.08312C0.368235 2.91647 0.233525 2.71794 0.141255 2.49897C0.0489854 2.28001 0.000982452 2.04494 1.49234e-05 1.80733C-0.000952606 1.56972 0.0451347 1.33427 0.135618 1.11456C0.226101 0.894847 0.35919 0.695225 0.527208 0.527208C0.695225 0.35919 0.894847 0.226101 1.11456 0.135618C1.33427 0.0451347 1.56972 -0.000952606 1.80733 1.49234e-05C2.04494 0.000982452 2.28001 0.0489854 2.49897 0.141255C2.71794 0.233525 2.91647 0.368235 3.08312 0.537615L7.06112 5.08412L11.0376 0.537615C11.2043 0.368235 11.4028 0.233525 11.6218 0.141255C11.8407 0.0489854 12.0758 0.000982452 12.3134 1.49234e-05C12.551 -0.000952606 12.7865 0.0451347 13.0062 0.135618C13.2259 0.226101 13.4255 0.35919 13.5935 0.527208C13.7615 0.695225 13.8946 0.894847 13.9851 1.11456C14.0756 1.33427 14.1217 1.56972 14.1207 1.80733C14.1197 2.04494 14.0717 2.28001 13.9795 2.49897C13.8872 2.71794 13.7525 2.91647 13.5831 3.08312L9.44612 7.81112L13.5831 12.5361C13.7505 12.7033 13.8832 12.9018 13.9738 13.1203C14.0644 13.3388 14.111 13.5731 14.111 13.8096C14.111 14.0462 14.0644 14.2804 13.9738 14.4989C13.8832 14.7174 13.7505 14.9159 13.5831 15.0831Z" stroke="black"/>
</svg>
