<svg width="176" height="6" viewBox="0 0 176 6" fill="none" xmlns="http://www.w3.org/2000/svg">
<path d="M2.76 5.64C2.01333 5.64 1.36 5.37333 0.8 4.84C0.266667 4.28 2.98023e-08 3.62667 2.98023e-08 2.88C2.98023e-08 2.10667 0.266667 1.45333 0.8 0.92C1.36 0.36 2.01333 0.0799999 2.76 0.0799999C3.53333 0.0799999 4.18667 0.36 4.72 0.92C5.25333 1.45333 5.52 2.10667 5.52 2.88C5.52 3.62667 5.25333 4.28 4.72 4.84C4.18667 5.37333 3.53333 5.64 2.76 5.64ZM24.01 5.64C23.2633 5.64 22.61 5.37333 22.05 4.84C21.5167 4.28 21.25 3.62667 21.25 2.88C21.25 2.10667 21.5167 1.45333 22.05 0.92C22.61 0.36 23.2633 0.0799999 24.01 0.0799999C24.7833 0.0799999 25.4367 0.36 25.97 0.92C26.5033 1.45333 26.77 2.10667 26.77 2.88C26.77 3.62667 26.5033 4.28 25.97 4.84C25.4367 5.37333 24.7833 5.64 24.01 5.64ZM45.26 5.64C44.5133 5.64 43.86 5.37333 43.3 4.84C42.7667 4.28 42.5 3.62667 42.5 2.88C42.5 2.10667 42.7667 1.45333 43.3 0.92C43.86 0.36 44.5133 0.0799999 45.26 0.0799999C46.0333 0.0799999 46.6867 0.36 47.22 0.92C47.7533 1.45333 48.02 2.10667 48.02 2.88C48.02 3.62667 47.7533 4.28 47.22 4.84C46.6867 5.37333 46.0333 5.64 45.26 5.64ZM66.51 5.64C65.7633 5.64 65.11 5.37333 64.55 4.84C64.0167 4.28 63.75 3.62667 63.75 2.88C63.75 2.10667 64.0167 1.45333 64.55 0.92C65.11 0.36 65.7633 0.0799999 66.51 0.0799999C67.2833 0.0799999 67.9367 0.36 68.47 0.92C69.0033 1.45333 69.27 2.10667 69.27 2.88C69.27 3.62667 69.0033 4.28 68.47 4.84C67.9367 5.37333 67.2833 5.64 66.51 5.64ZM87.76 5.64C87.0133 5.64 86.36 5.37333 85.8 4.84C85.2667 4.28 85 3.62667 85 2.88C85 2.10667 85.2667 1.45333 85.8 0.92C86.36 0.36 87.0133 0.0799999 87.76 0.0799999C88.5333 0.0799999 89.1867 0.36 89.72 0.92C90.2533 1.45333 90.52 2.10667 90.52 2.88C90.52 3.62667 90.2533 4.28 89.72 4.84C89.1867 5.37333 88.5333 5.64 87.76 5.64ZM109.01 5.64C108.263 5.64 107.61 5.37333 107.05 4.84C106.517 4.28 106.25 3.62667 106.25 2.88C106.25 2.10667 106.517 1.45333 107.05 0.92C107.61 0.36 108.263 0.0799999 109.01 0.0799999C109.783 0.0799999 110.437 0.36 110.97 0.92C111.503 1.45333 111.77 2.10667 111.77 2.88C111.77 3.62667 111.503 4.28 110.97 4.84C110.437 5.37333 109.783 5.64 109.01 5.64ZM130.26 5.64C129.513 5.64 128.86 5.37333 128.3 4.84C127.767 4.28 127.5 3.62667 127.5 2.88C127.5 2.10667 127.767 1.45333 128.3 0.92C128.86 0.36 129.513 0.0799999 130.26 0.0799999C131.033 0.0799999 131.687 0.36 132.22 0.92C132.753 1.45333 133.02 2.10667 133.02 2.88C133.02 3.62667 132.753 4.28 132.22 4.84C131.687 5.37333 131.033 5.64 130.26 5.64ZM151.51 5.64C150.763 5.64 150.11 5.37333 149.55 4.84C149.017 4.28 148.75 3.62667 148.75 2.88C148.75 2.10667 149.017 1.45333 149.55 0.92C150.11 0.36 150.763 0.0799999 151.51 0.0799999C152.283 0.0799999 152.937 0.36 153.47 0.92C154.003 1.45333 154.27 2.10667 154.27 2.88C154.27 3.62667 154.003 4.28 153.47 4.84C152.937 5.37333 152.283 5.64 151.51 5.64ZM172.76 5.64C172.013 5.64 171.36 5.37333 170.8 4.84C170.267 4.28 170 3.62667 170 2.88C170 2.10667 170.267 1.45333 170.8 0.92C171.36 0.36 172.013 0.0799999 172.76 0.0799999C173.533 0.0799999 174.187 0.36 174.72 0.92C175.253 1.45333 175.52 2.10667 175.52 2.88C175.52 3.62667 175.253 4.28 174.72 4.84C174.187 5.37333 173.533 5.64 172.76 5.64Z" fill="#36827F"/>
</svg>
