<svg width="24" height="24" viewBox="0 0 24 24" fill="none" xmlns="http://www.w3.org/2000/svg">
<path d="M10.9643 21.5637L10.9629 21.5623C7.85424 18.4899 5.35065 16.0131 3.61233 13.6968C1.88736 11.3982 1 9.36402 1 7.19346C1 3.63461 3.5356 1 6.6 1C8.35163 1 10.0752 1.89421 11.212 3.34919L12 4.35775L12.788 3.34919C13.9248 1.89421 15.6484 1 17.4 1C20.4644 1 23 3.63461 23 7.19346C23 9.36402 22.1126 11.3983 20.3875 13.6987C18.6491 16.0167 16.1457 18.4965 13.0372 21.5753C13.0369 21.5756 13.0366 21.5759 13.0363 21.5762L12.0027 22.5939L10.9643 21.5637Z" stroke="#36827F" stroke-width="2"/>
</svg>
