<svg width="35" height="35" viewBox="0 0 35 35" fill="none" xmlns="http://www.w3.org/2000/svg">
<path d="M17.5 0C14.0388 0 10.6554 1.02636 7.77753 2.94928C4.89967 4.87221 2.65665 7.60533 1.33212 10.803C0.00758245 14.0007 -0.338976 17.5194 0.336265 20.9141C1.01151 24.3087 2.67822 27.4269 5.12564 29.8744C7.57306 32.3218 10.6913 33.9885 14.0859 34.6637C17.4806 35.339 20.9993 34.9924 24.197 33.6679C27.3947 32.3434 30.1278 30.1003 32.0507 27.2225C33.9736 24.3446 35 20.9612 35 17.5C35 12.8587 33.1563 8.40752 29.8744 5.12563C26.5925 1.84374 22.1413 0 17.5 0V0ZM27.5 28.6487V27.8887C27.5347 26.1842 26.8996 24.5341 25.731 23.2928C24.5623 22.0515 22.9535 21.318 21.25 21.25H13.75C12.048 21.3184 10.4408 22.0522 9.27424 23.2935C8.10772 24.5348 7.4751 26.1845 7.51251 27.8875C7.51251 27.9012 7.50001 27.915 7.50001 27.9287V28.66C5.23239 26.6358 3.63293 23.9708 2.91334 21.0176C2.19375 18.0644 2.38795 14.9622 3.47025 12.1218C4.55255 9.28143 6.47191 6.83667 8.97427 5.11114C11.4766 3.38561 14.444 2.46068 17.4836 2.45878C20.5232 2.45688 23.4918 3.3781 25.9963 5.1005C28.5008 6.8229 30.4232 9.26526 31.5091 12.1043C32.5949 14.9434 32.793 18.0452 32.0771 20.9993C31.3612 23.9535 29.7651 26.6205 27.5 28.6475V28.6487Z" fill="#36827F"/>
<path d="M17.5 6.42871C16.2991 6.42871 15.1253 6.78479 14.1269 7.45193C13.1284 8.11907 12.3502 9.0673 11.8907 10.1767C11.4312 11.2861 11.3109 12.5069 11.5452 13.6846C11.7795 14.8624 12.3577 15.9442 13.2068 16.7933C14.0559 17.6424 15.1377 18.2206 16.3155 18.4549C17.4932 18.6892 18.714 18.5689 19.8234 18.1094C20.9328 17.6499 21.881 16.8717 22.5482 15.8732C23.2153 14.8748 23.5714 13.701 23.5714 12.5001C23.5714 10.8899 22.9317 9.3456 21.7931 8.20699C20.6545 7.06838 19.1102 6.42871 17.5 6.42871V6.42871Z" fill="#36827F"/>
</svg>
