<svg width="31" height="30" viewBox="0 0 31 30" fill="none" xmlns="http://www.w3.org/2000/svg">
<path d="M27.4193 22.6744H24.967C24.7996 22.6744 24.6426 22.7477 24.5379 22.8768C24.2938 23.1733 24.0321 23.4593 23.7565 23.7314C22.6294 24.8596 21.2944 25.7588 19.8252 26.3791C18.303 27.022 16.667 27.3518 15.0147 27.3488C13.3438 27.3488 11.7252 27.0209 10.2042 26.3791C8.73505 25.7588 7.39997 24.8596 6.27286 23.7314C5.14373 22.607 4.24339 21.2742 3.6217 19.807C2.97635 18.2861 2.65193 16.671 2.65193 15C2.65193 13.3291 2.97984 11.714 3.6217 10.1931C4.24263 8.72446 5.13565 7.40237 6.27286 6.26865C7.41007 5.13493 8.73216 4.24191 10.2042 3.62098C11.7252 2.97912 13.3438 2.65121 15.0147 2.65121C16.6856 2.65121 18.3042 2.97563 19.8252 3.62098C21.2973 4.24191 22.6193 5.13493 23.7565 6.26865C24.0321 6.54423 24.2903 6.83027 24.5379 7.1233C24.6426 7.25237 24.8031 7.32562 24.967 7.32562H27.4193C27.6391 7.32562 27.7751 7.08144 27.6531 6.89655C24.9775 2.73842 20.2961 -0.0139007 14.9763 5.28092e-05C6.61821 0.020983 -0.0829448 6.80586 0.000776003 15.1535C0.0844968 23.3686 6.77518 30 15.0147 30C20.3205 30 24.981 27.2512 27.6531 23.1035C27.7717 22.9186 27.6391 22.6744 27.4193 22.6744ZM30.5205 14.7803L25.5705 10.8733C25.3856 10.7268 25.117 10.8593 25.117 11.0931V13.7442H14.1635C14.0101 13.7442 13.8845 13.8698 13.8845 14.0233V15.9768C13.8845 16.1303 14.0101 16.2558 14.1635 16.2558H25.117V18.907C25.117 19.1407 25.3891 19.2733 25.5705 19.1268L30.5205 15.2198C30.5538 15.1937 30.5808 15.1603 30.5994 15.1223C30.6179 15.0842 30.6276 15.0424 30.6276 15C30.6276 14.9577 30.6179 14.9159 30.5994 14.8778C30.5808 14.8397 30.5538 14.8064 30.5205 14.7803V14.7803Z" fill="#36827F"/>
</svg>
