<svg width="32" height="32" viewBox="0 0 32 32" fill="none" xmlns="http://www.w3.org/2000/svg">
<path fill-rule="evenodd" clip-rule="evenodd" d="M4.8 7.9999C4.8 7.57556 4.96857 7.16859 5.26863 6.86853C5.56869 6.56847 5.97565 6.3999 6.4 6.3999H25.6C26.0243 6.3999 26.4313 6.56847 26.7314 6.86853C27.0314 7.16859 27.2 7.57556 27.2 7.9999C27.2 8.42425 27.0314 8.83121 26.7314 9.13127C26.4313 9.43133 26.0243 9.5999 25.6 9.5999H6.4C5.97565 9.5999 5.56869 9.43133 5.26863 9.13127C4.96857 8.83121 4.8 8.42425 4.8 7.9999ZM4.8 15.9999C4.8 15.5756 4.96857 15.1686 5.26863 14.8685C5.56869 14.5685 5.97565 14.3999 6.4 14.3999H25.6C26.0243 14.3999 26.4313 14.5685 26.7314 14.8685C27.0314 15.1686 27.2 15.5756 27.2 15.9999C27.2 16.4242 27.0314 16.8312 26.7314 17.1313C26.4313 17.4313 26.0243 17.5999 25.6 17.5999H6.4C5.97565 17.5999 5.56869 17.4313 5.26863 17.1313C4.96857 16.8312 4.8 16.4242 4.8 15.9999ZM4.8 23.9999C4.8 23.5756 4.96857 23.1686 5.26863 22.8685C5.56869 22.5685 5.97565 22.3999 6.4 22.3999H25.6C26.0243 22.3999 26.4313 22.5685 26.7314 22.8685C27.0314 23.1686 27.2 23.5756 27.2 23.9999C27.2 24.4242 27.0314 24.8312 26.7314 25.1313C26.4313 25.4313 26.0243 25.5999 25.6 25.5999H6.4C5.97565 25.5999 5.56869 25.4313 5.26863 25.1313C4.96857 24.8312 4.8 24.4242 4.8 23.9999Z" fill="#393B55"/>
</svg>
