<svg width="38" height="35" viewBox="0 0 38 35" fill="none" xmlns="http://www.w3.org/2000/svg">
<path fill-rule="evenodd" clip-rule="evenodd" d="M6.27742 25.5363C6.52073 25.7806 6.70717 26.0755 6.82346 26.4C6.93974 26.7245 6.98301 27.0707 6.95017 27.4139C6.78543 29.0022 6.4731 30.5717 6.01723 32.1021C9.28721 31.3449 11.2844 30.4682 12.1915 30.0088C12.706 29.7482 13.2986 29.6864 13.8558 29.8353C15.4531 30.2612 17.0995 30.4755 18.7526 30.4729C28.1195 30.4729 35.1611 23.8931 35.1611 16.4085C35.1611 8.92623 28.1195 2.34407 18.7526 2.34407C9.38566 2.34407 2.34407 8.92623 2.34407 16.4085C2.34407 19.8496 3.79036 23.0422 6.27742 25.5363ZM5.1218 34.6899C4.56641 34.8 4.00923 34.9008 3.45047 34.9923C2.98166 35.0673 2.62536 34.5797 2.81054 34.1438C3.01868 33.6529 3.20945 33.1549 3.3825 32.6506L3.38953 32.6271C3.97086 30.9394 4.44436 28.9985 4.61782 27.1912C1.74165 24.308 0 20.5341 0 16.4085C0 7.34632 8.39646 0 18.7526 0C29.1087 0 37.5051 7.34632 37.5051 16.4085C37.5051 25.4707 29.1087 32.817 18.7526 32.817C16.8953 32.8195 15.0456 32.5784 13.251 32.0997C12.0321 32.7162 9.4091 33.839 5.1218 34.6899V34.6899Z" fill="#36827F"/>
<path d="M11.7202 16.4083C11.7202 17.03 11.4733 17.6262 11.0337 18.0658C10.5941 18.5054 9.99786 18.7524 9.37618 18.7524C8.75449 18.7524 8.15827 18.5054 7.71867 18.0658C7.27907 17.6262 7.0321 17.03 7.0321 16.4083C7.0321 15.7866 7.27907 15.1904 7.71867 14.7508C8.15827 14.3112 8.75449 14.0642 9.37618 14.0642C9.99786 14.0642 10.5941 14.3112 11.0337 14.7508C11.4733 15.1904 11.7202 15.7866 11.7202 16.4083V16.4083ZM21.0965 16.4083C21.0965 17.03 20.8496 17.6262 20.41 18.0658C19.9704 18.5054 19.3742 18.7524 18.7525 18.7524C18.1308 18.7524 17.5346 18.5054 17.095 18.0658C16.6554 17.6262 16.4084 17.03 16.4084 16.4083C16.4084 15.7866 16.6554 15.1904 17.095 14.7508C17.5346 14.3112 18.1308 14.0642 18.7525 14.0642C19.3742 14.0642 19.9704 14.3112 20.41 14.7508C20.8496 15.1904 21.0965 15.7866 21.0965 16.4083ZM30.4728 16.4083C30.4728 17.03 30.2259 17.6262 29.7863 18.0658C29.3467 18.5054 28.7504 18.7524 28.1288 18.7524C27.5071 18.7524 26.9108 18.5054 26.4712 18.0658C26.0316 17.6262 25.7847 17.03 25.7847 16.4083C25.7847 15.7866 26.0316 15.1904 26.4712 14.7508C26.9108 14.3112 27.5071 14.0642 28.1288 14.0642C28.7504 14.0642 29.3467 14.3112 29.7863 14.7508C30.2259 15.1904 30.4728 15.7866 30.4728 16.4083Z" fill="#36827F"/>
</svg>
