<svg width="38" height="35" viewBox="0 0 38 35" fill="none" xmlns="http://www.w3.org/2000/svg">
<path d="M37.1291 27.6316C37.1291 29.5858 36.3468 31.46 34.9542 32.8418C33.5615 34.2237 31.6728 35 29.7033 35H24.1339C22.1645 35 20.2757 34.2237 18.8831 32.8418C17.4905 31.46 16.7081 29.5858 16.7081 27.6316V23.9474H29.3134L34.4373 15.1605L37.3333 16.8184L33.1749 23.9474H37.1291V27.6316ZM12.9952 35H0C0 29.4737 -1.6598e-07 23.9474 0.61263 18.1079C1.11387 13.4474 2.00497 8.58421 2.97033 3.68421H1.85646V0H11.1387V3.68421H10.0249C10.9902 8.58421 11.8813 13.4474 12.3826 18.1079C12.9952 23.9474 12.9952 29.4737 12.9952 35Z" fill="#A8E6CF"/>
</svg>
