<svg width="22" height="22" viewBox="0 0 22 22" fill="none" xmlns="http://www.w3.org/2000/svg">
<path d="M10.4 11.8169V6H11.05V11.275V11.5597L11.2949 11.705L15.8096 14.3838L15.5066 14.8808L10.4 11.8169ZM11 20.3C13.4665 20.3 15.832 19.3202 17.5761 17.5761C19.3202 15.832 20.3 13.4665 20.3 11C20.3 8.53349 19.3202 6.168 17.5761 4.42391C15.832 2.67982 13.4665 1.7 11 1.7C8.53349 1.7 6.168 2.67982 4.42391 4.42391C2.67982 6.168 1.7 8.53349 1.7 11C1.7 13.4665 2.67982 15.832 4.42391 17.5761C6.168 19.3202 8.53349 20.3 11 20.3ZM11 0.5C12.3789 0.5 13.7443 0.771591 15.0182 1.29927C16.2921 1.82694 17.4496 2.60036 18.4246 3.57538C19.3996 4.55039 20.1731 5.70791 20.7007 6.98182C21.2284 8.25574 21.5 9.62112 21.5 11C21.5 13.7848 20.3938 16.4555 18.4246 18.4246C16.4555 20.3938 13.7848 21.5 11 21.5C5.19412 21.5 0.5 16.7748 0.5 11C0.5 8.21523 1.60625 5.54451 3.57538 3.57538C5.54451 1.60625 8.21523 0.5 11 0.5Z" fill="#36827F" stroke="#36827F"/>
</svg>
