<svg width="40" height="40" viewBox="0 0 40 40" fill="none" xmlns="http://www.w3.org/2000/svg">
<path d="M23 16H18V11C18 10.448 17.552 10 17 10C16.448 10 16 10.448 16 11V16H11C10.448 16 10 16.448 10 17C10 17.552 10.448 18 11 18H16V23C16 23.552 16.448 24 17 24C17.552 24 18 23.552 18 23V18H23C23.552 18 24 17.552 24 17C24 16.448 23.552 16 23 16Z" fill="#36827F"/>
<path d="M16.6855 31.3709C24.796 31.3709 31.3709 24.796 31.3709 16.6855C31.3709 8.57491 24.796 2 16.6855 2C8.57491 2 2 8.57491 2 16.6855C2 24.796 8.57491 31.3709 16.6855 31.3709Z" stroke="#36827F" stroke-width="3" stroke-linecap="round" stroke-linejoin="round"/>
<path d="M29.3513 24.1216L36.9171 31.6845C37.2607 32.0279 37.5332 32.4357 37.7192 32.8846C37.9051 33.3334 38.0008 33.8145 38.0008 34.3003C38.0008 34.7861 37.9051 35.2672 37.7192 35.716C37.5332 36.1648 37.2607 36.5726 36.9171 36.9161V36.9161C36.5736 37.2597 36.1658 37.5322 35.717 37.7182C35.2682 37.9041 34.7871 37.9998 34.3013 37.9998C33.8154 37.9998 33.3344 37.9041 32.8856 37.7182C32.4367 37.5322 32.0289 37.2597 31.6855 36.9161L24.1235 29.3542" stroke="#36827F" stroke-width="3" stroke-linecap="round" stroke-linejoin="round"/>
</svg>
